<svg width="76" height="37" viewBox="0 0 76 37" fill="none" xmlns="http://www.w3.org/2000/svg">
<path d="M8.27991 27.9584C8.99017 27.9584 9.57386 27.8829 10.0309 27.7319C10.8467 27.4515 11.5147 26.9123 12.0352 26.1142C12.45 25.4743 12.7489 24.6547 12.9317 23.6553C13.0372 23.0585 13.09 22.5049 13.09 21.9944C13.09 20.0316 12.7067 18.5073 11.9402 17.4216C11.1807 16.336 9.9536 15.7931 8.2588 15.7931H4.53523V27.9584H8.27991ZM2.42554 13.9489H8.70184C10.8326 13.9489 12.4852 14.7218 13.6596 16.2677C14.7074 17.6625 15.2313 19.4492 15.2313 21.6277C15.2313 23.3102 14.9219 24.8308 14.303 26.1897C13.213 28.5911 11.339 29.7919 8.68076 29.7919H2.42554V13.9489Z" fill="white"/>
<path d="M24.63 13.5175C27.3656 13.5175 29.3907 14.4163 30.7058 16.2137C31.7325 17.6158 32.2458 19.4096 32.2458 21.5954C32.2458 23.9609 31.6588 25.9273 30.4844 27.4947C29.1061 29.3353 27.1405 30.2556 24.5878 30.2556C22.2039 30.2556 20.3298 29.4503 18.9655 27.8398C17.7489 26.2868 17.1406 24.324 17.1406 21.9513C17.1406 19.8087 17.661 17.9753 18.7018 16.451C20.0379 14.4953 22.014 13.5175 24.63 13.5175ZM24.841 28.3359C26.6904 28.3359 28.0266 27.6601 28.8494 26.3084C29.6793 24.9495 30.094 23.3893 30.094 21.6277C30.094 19.7656 29.6158 18.2665 28.6595 17.1304C27.7101 15.9944 26.4092 15.4265 24.7566 15.4265C23.1532 15.4265 21.8452 15.9908 20.8326 17.1197C19.8199 18.2413 19.3136 19.8985 19.3136 22.0915C19.3136 23.8458 19.7461 25.3269 20.6111 26.5349C21.483 27.7356 22.893 28.3359 24.841 28.3359Z" fill="white"/>
<path d="M40.7056 27.9584C41.4159 27.9584 41.9997 27.8829 42.4569 27.7319C43.2725 27.4515 43.9404 26.9123 44.4611 26.1142C44.8757 25.4743 45.1748 24.6547 45.3577 23.6553C45.4631 23.0585 45.5158 22.5049 45.5158 21.9944C45.5158 20.0316 45.1326 18.5073 44.3659 17.4216C43.6065 16.336 42.3794 15.7931 40.6847 15.7931H36.961V27.9584H40.7056ZM34.8513 13.9489H41.1276C43.2585 13.9489 44.911 14.7218 46.0853 16.2677C47.1333 17.6625 47.6572 19.4492 47.6572 21.6277C47.6572 23.3102 47.3476 24.8308 46.7289 26.1897C45.639 28.5911 43.7649 29.7919 41.1066 29.7919H34.8513V13.9489Z" fill="white"/>
<path d="M51.7395 24.6799C51.7887 25.5786 51.9963 26.3084 52.3617 26.8692C53.058 27.9189 54.2853 28.4438 56.0432 28.4438C56.8309 28.4438 57.5481 28.3288 58.1951 28.0987C59.4469 27.6529 60.0727 26.8548 60.0727 25.7045C60.0727 24.8417 59.8092 24.2269 59.2815 23.8602C58.7472 23.5008 57.9103 23.188 56.7712 22.922L54.672 22.4367C53.3005 22.1203 52.3303 21.7716 51.7607 21.3905C50.7759 20.729 50.2838 19.7404 50.2838 18.4247C50.2838 17.0011 50.7654 15.8327 51.729 14.9196C52.6922 14.0065 54.0567 13.5499 55.8216 13.5499C57.4462 13.5499 58.8247 13.9526 59.9568 14.7578C61.0959 15.5559 61.6655 16.8357 61.6655 18.5972H59.693C59.5876 17.7488 59.3625 17.0981 59.018 16.6452C58.378 15.8183 57.2915 15.4049 55.7584 15.4049C54.5209 15.4049 53.6313 15.6709 53.0897 16.203C52.5481 16.735 52.2776 17.3534 52.2776 18.058C52.2776 18.8345 52.5938 19.4025 53.2269 19.762C53.6418 19.9921 54.5806 20.2797 56.0432 20.6248L58.2164 21.1317C59.2641 21.3761 60.0727 21.7105 60.6422 22.1347C61.6268 22.8752 62.1192 23.9501 62.1192 25.3593C62.1192 27.1137 61.4934 28.3683 60.2416 29.1233C58.9967 29.8783 57.5481 30.2557 55.8956 30.2557C53.9688 30.2557 52.4602 29.7524 51.3702 28.7458C50.2803 27.7464 49.7457 26.3911 49.767 24.6799H51.7395Z" fill="white"/>
<path d="M65.9045 2.94611H63.8662V34.954H65.9045V2.94611Z" fill="white"/>
<path d="M73.4754 19.9779H71.5576L70.5419 18.1245L69.5207 19.9779H67.6516L69.6614 16.8492L67.7381 13.8112H69.6235L70.6066 15.6023L71.5684 13.8112H73.3997L71.4656 16.8209L73.4754 19.9779Z" fill="white"/>
</svg>
