<svg width="320" height="99" viewBox="0 0 320 99" fill="none" xmlns="http://www.w3.org/2000/svg">
  <path d="M76.524 20.984H76.364V29H74.572V17.832H77.148L80.076 25.848H80.236V17.832H82.028V29H79.452L76.524 20.984ZM88.0858 29.192C87.4244 29.192 86.8378 29.0907 86.3258 28.888C85.8138 28.6853 85.3818 28.3973 85.0298 28.024C84.6884 27.6507 84.4271 27.2027 84.2458 26.68C84.0644 26.1467 83.9738 25.5493 83.9738 24.888C83.9738 24.216 84.0644 23.6133 84.2458 23.08C84.4378 22.5467 84.7044 22.0933 85.0458 21.72C85.3871 21.3467 85.7978 21.0587 86.2778 20.856C86.7684 20.6533 87.3178 20.552 87.9258 20.552C88.5231 20.552 89.0618 20.6533 89.5418 20.856C90.0218 21.048 90.4271 21.3253 90.7578 21.688C91.0991 22.0507 91.3604 22.488 91.5417 23C91.7231 23.512 91.8138 24.0773 91.8138 24.696V25.368H86.0218V25.576C86.0218 26.1733 86.2084 26.6587 86.5818 27.032C86.9551 27.3947 87.4778 27.576 88.1498 27.576C88.6618 27.576 89.0991 27.4747 89.4618 27.272C89.8351 27.0587 90.1444 26.7813 90.3898 26.44L91.5578 27.608C91.2591 28.0453 90.8218 28.4187 90.2458 28.728C89.6804 29.0373 88.9604 29.192 88.0858 29.192ZM87.9418 22.056C87.3658 22.056 86.9018 22.2373 86.5498 22.6C86.1978 22.9627 86.0218 23.4427 86.0218 24.04V24.152H89.7658V24.008C89.7658 23.4107 89.6004 22.936 89.2698 22.584C88.9498 22.232 88.5071 22.056 87.9418 22.056ZM98.0475 29C97.2582 29 96.6768 28.792 96.3035 28.376C95.9302 27.96 95.7435 27.4213 95.7435 26.76V22.36H93.3435V20.744H94.9755C95.3062 20.744 95.5408 20.68 95.6795 20.552C95.8182 20.4133 95.8875 20.1733 95.8875 19.832V17.832H97.7915V20.744H101.152V22.36H97.7915V27.384H101.152V29H98.0475ZM102.505 20.744H104.217L104.921 27.56H105.065L106.185 20.744H108.057L109.161 27.56H109.305L110.025 20.744H111.657L110.601 29H108.121L107.161 22.936H107.017L106.041 29H103.561L102.505 20.744ZM116.675 29.192C116.046 29.192 115.48 29.0907 114.979 28.888C114.488 28.6853 114.067 28.3973 113.715 28.024C113.374 27.6507 113.107 27.1973 112.915 26.664C112.734 26.1307 112.643 25.5333 112.643 24.872C112.643 24.2107 112.734 23.6133 112.915 23.08C113.107 22.5467 113.374 22.0933 113.715 21.72C114.067 21.3467 114.488 21.0587 114.979 20.856C115.48 20.6533 116.046 20.552 116.675 20.552C117.294 20.552 117.854 20.6533 118.355 20.856C118.856 21.0587 119.278 21.3467 119.619 21.72C119.971 22.0933 120.238 22.5467 120.419 23.08C120.611 23.6133 120.707 24.2107 120.707 24.872C120.707 25.5333 120.611 26.1307 120.419 26.664C120.238 27.1973 119.971 27.6507 119.619 28.024C119.278 28.3973 118.856 28.6853 118.355 28.888C117.854 29.0907 117.294 29.192 116.675 29.192ZM116.675 27.624C117.262 27.624 117.726 27.448 118.067 27.096C118.408 26.7333 118.579 26.2053 118.579 25.512V24.232C118.579 23.5387 118.408 23.016 118.067 22.664C117.726 22.3013 117.262 22.12 116.675 22.12C116.088 22.12 115.624 22.3013 115.283 22.664C114.942 23.016 114.771 23.5387 114.771 24.232V25.512C114.771 26.2053 114.942 26.7333 115.283 27.096C115.624 27.448 116.088 27.624 116.675 27.624ZM122.669 27.384H124.717V22.36H122.669V20.744H126.765V23H126.893C126.967 22.712 127.069 22.4347 127.197 22.168C127.335 21.8907 127.506 21.6507 127.709 21.448C127.922 21.2347 128.178 21.064 128.477 20.936C128.775 20.808 129.133 20.744 129.549 20.744H130.445V22.664H128.749C128.13 22.664 127.645 22.8453 127.293 23.208C126.941 23.5707 126.765 24.0347 126.765 24.6V27.384H129.629V29H122.669V27.384ZM132.295 17.16H134.343V24.104H134.439L135.639 22.792L137.671 20.744H140.055L136.775 23.992L140.407 29H137.959L135.319 25.16L134.343 26.088V29H132.295V17.16ZM154.922 29.192C153.962 29.192 153.141 29.0267 152.458 28.696C151.786 28.3653 151.237 27.928 150.81 27.384L152.074 26.072C152.49 26.552 152.938 26.9093 153.418 27.144C153.909 27.368 154.431 27.48 154.986 27.48C155.626 27.48 156.117 27.336 156.458 27.048C156.799 26.76 156.97 26.344 156.97 25.8C156.97 25.352 156.842 25.016 156.586 24.792C156.33 24.5573 155.898 24.392 155.29 24.296L154.106 24.104C153.071 23.9227 152.335 23.5493 151.898 22.984C151.461 22.408 151.242 21.7307 151.242 20.952C151.242 19.8853 151.589 19.0693 152.282 18.504C152.975 17.928 153.935 17.64 155.162 17.64C156.037 17.64 156.789 17.7787 157.418 18.056C158.058 18.3333 158.57 18.712 158.954 19.192L157.722 20.504C157.423 20.152 157.066 19.8747 156.65 19.672C156.234 19.4587 155.743 19.352 155.178 19.352C153.962 19.352 153.354 19.8533 153.354 20.856C153.354 21.2827 153.482 21.608 153.738 21.832C153.994 22.056 154.431 22.2213 155.05 22.328L156.218 22.536C157.189 22.7173 157.909 23.0747 158.378 23.608C158.847 24.1413 159.082 24.824 159.082 25.656C159.082 26.1787 158.991 26.6587 158.81 27.096C158.629 27.5227 158.362 27.896 158.01 28.216C157.658 28.5253 157.221 28.7653 156.698 28.936C156.186 29.1067 155.594 29.192 154.922 29.192ZM166.196 27.544H166.116C165.934 27.992 165.652 28.3813 165.268 28.712C164.894 29.032 164.372 29.192 163.7 29.192C162.889 29.192 162.228 28.9253 161.716 28.392C161.214 27.848 160.964 27.0747 160.964 26.072V20.744H163.012V25.784C163.012 26.9787 163.529 27.576 164.564 27.576C164.766 27.576 164.964 27.5493 165.156 27.496C165.358 27.4427 165.534 27.3627 165.684 27.256C165.844 27.1387 165.966 27 166.052 26.84C166.148 26.68 166.196 26.488 166.196 26.264V20.744H168.244V29H166.196V27.544ZM170.542 20.744H172.59V22.2H172.702C172.926 21.6987 173.23 21.2987 173.614 21C174.008 20.7013 174.526 20.552 175.166 20.552C175.635 20.552 176.062 20.6427 176.446 20.824C176.84 20.9947 177.176 21.2613 177.454 21.624C177.731 21.976 177.944 22.424 178.094 22.968C178.243 23.512 178.318 24.1467 178.318 24.872C178.318 25.5973 178.243 26.232 178.094 26.776C177.944 27.32 177.731 27.7733 177.454 28.136C177.176 28.488 176.84 28.7547 176.446 28.936C176.062 29.1067 175.635 29.192 175.166 29.192C174.526 29.192 174.008 29.0427 173.614 28.744C173.23 28.4453 172.926 28.0453 172.702 27.544H172.59V32.2H170.542V20.744ZM174.302 27.56C174.899 27.56 175.358 27.3787 175.678 27.016C176.008 26.6533 176.174 26.1573 176.174 25.528V24.216C176.174 23.5867 176.008 23.0907 175.678 22.728C175.358 22.3653 174.899 22.184 174.302 22.184C173.832 22.184 173.427 22.3013 173.086 22.536C172.755 22.76 172.59 23.1067 172.59 23.576V26.168C172.59 26.6373 172.755 26.9893 173.086 27.224C173.427 27.448 173.832 27.56 174.302 27.56ZM180.135 20.744H182.183V22.2H182.295C182.519 21.6987 182.823 21.2987 183.207 21C183.602 20.7013 184.119 20.552 184.759 20.552C185.229 20.552 185.655 20.6427 186.039 20.824C186.434 20.9947 186.77 21.2613 187.047 21.624C187.325 21.976 187.538 22.424 187.687 22.968C187.837 23.512 187.911 24.1467 187.911 24.872C187.911 25.5973 187.837 26.232 187.687 26.776C187.538 27.32 187.325 27.7733 187.047 28.136C186.77 28.488 186.434 28.7547 186.039 28.936C185.655 29.1067 185.229 29.192 184.759 29.192C184.119 29.192 183.602 29.0427 183.207 28.744C182.823 28.4453 182.519 28.0453 182.295 27.544H182.183V32.2H180.135V20.744ZM183.895 27.56C184.493 27.56 184.951 27.3787 185.271 27.016C185.602 26.6533 185.767 26.1573 185.767 25.528V24.216C185.767 23.5867 185.602 23.0907 185.271 22.728C184.951 22.3653 184.493 22.184 183.895 22.184C183.426 22.184 183.021 22.3013 182.679 22.536C182.349 22.76 182.183 23.1067 182.183 23.576V26.168C182.183 26.6373 182.349 26.9893 182.679 27.224C183.021 27.448 183.426 27.56 183.895 27.56ZM193.425 29.192C192.796 29.192 192.23 29.0907 191.729 28.888C191.238 28.6853 190.817 28.3973 190.465 28.024C190.124 27.6507 189.857 27.1973 189.665 26.664C189.484 26.1307 189.393 25.5333 189.393 24.872C189.393 24.2107 189.484 23.6133 189.665 23.08C189.857 22.5467 190.124 22.0933 190.465 21.72C190.817 21.3467 191.238 21.0587 191.729 20.856C192.23 20.6533 192.796 20.552 193.425 20.552C194.044 20.552 194.604 20.6533 195.105 20.856C195.606 21.0587 196.028 21.3467 196.369 21.72C196.721 22.0933 196.988 22.5467 197.169 23.08C197.361 23.6133 197.457 24.2107 197.457 24.872C197.457 25.5333 197.361 26.1307 197.169 26.664C196.988 27.1973 196.721 27.6507 196.369 28.024C196.028 28.3973 195.606 28.6853 195.105 28.888C194.604 29.0907 194.044 29.192 193.425 29.192ZM193.425 27.624C194.012 27.624 194.476 27.448 194.817 27.096C195.158 26.7333 195.329 26.2053 195.329 25.512V24.232C195.329 23.5387 195.158 23.016 194.817 22.664C194.476 22.3013 194.012 22.12 193.425 22.12C192.838 22.12 192.374 22.3013 192.033 22.664C191.692 23.016 191.521 23.5387 191.521 24.232V25.512C191.521 26.2053 191.692 26.7333 192.033 27.096C192.374 27.448 192.838 27.624 193.425 27.624ZM199.419 27.384H201.467V22.36H199.419V20.744H203.515V23H203.643C203.717 22.712 203.819 22.4347 203.947 22.168C204.085 21.8907 204.256 21.6507 204.459 21.448C204.672 21.2347 204.928 21.064 205.227 20.936C205.525 20.808 205.883 20.744 206.299 20.744H207.195V22.664H205.499C204.88 22.664 204.395 22.8453 204.043 23.208C203.691 23.5707 203.515 24.0347 203.515 24.6V27.384H206.379V29H199.419V27.384ZM213.173 29C212.383 29 211.802 28.792 211.429 28.376C211.055 27.96 210.869 27.4213 210.869 26.76V22.36H208.469V20.744H210.101C210.431 20.744 210.666 20.68 210.805 20.552C210.943 20.4133 211.013 20.1733 211.013 19.832V17.832H212.917V20.744H216.277V22.36H212.917V27.384H216.277V29H213.173ZM228.104 17.16H230.152V22.2H230.264C230.488 21.6987 230.792 21.2987 231.176 21C231.571 20.7013 232.088 20.552 232.728 20.552C233.197 20.552 233.624 20.6427 234.008 20.824C234.403 20.9947 234.739 21.2613 235.016 21.624C235.293 21.976 235.507 22.424 235.656 22.968C235.805 23.512 235.88 24.1467 235.88 24.872C235.88 25.5973 235.805 26.232 235.656 26.776C235.507 27.32 235.293 27.7733 235.016 28.136C234.739 28.488 234.403 28.7547 234.008 28.936C233.624 29.1067 233.197 29.192 232.728 29.192C232.088 29.192 231.571 29.0427 231.176 28.744C230.792 28.4453 230.488 28.0453 230.264 27.544H230.152V29H228.104V17.16ZM231.864 27.56C232.461 27.56 232.92 27.3787 233.24 27.016C233.571 26.6533 233.736 26.1573 233.736 25.528V24.216C233.736 23.5867 233.571 23.0907 233.24 22.728C232.92 22.3653 232.461 22.184 231.864 22.184C231.395 22.184 230.989 22.3013 230.648 22.536C230.317 22.76 230.152 23.1067 230.152 23.576V26.168C230.152 26.6373 230.317 26.9893 230.648 27.224C230.989 27.448 231.395 27.56 231.864 27.56ZM243.65 20.744H245.73L241.778 30.472C241.554 31.0373 241.255 31.464 240.882 31.752C240.508 32.0507 239.98 32.2 239.298 32.2H237.794V30.584H239.762L240.386 28.92L237.058 20.744H239.234L240.498 24.2L241.378 26.824H241.49L242.37 24.2L243.65 20.744Z" fill="white"/>
  <g clip-path="url(#clip0_15_765)">
  <path d="M116.594 73.7137C116.908 73.7004 117.222 73.7509 117.516 73.862C117.81 73.9732 118.078 74.1427 118.304 74.3603C118.531 74.5778 118.71 74.839 118.832 75.1278C118.955 75.4167 119.017 75.7273 119.015 76.0407C119.021 76.3553 118.962 76.6678 118.841 76.9586C118.72 77.2493 118.541 77.5122 118.313 77.7306C118.086 77.949 117.816 78.1184 117.52 78.228C117.224 78.3376 116.909 78.3852 116.594 78.3678H103.798C103.475 78.38 103.153 78.3263 102.851 78.2099C102.549 78.0935 102.275 77.9169 102.044 77.691C101.813 77.465 101.631 77.1945 101.509 76.8959C101.387 76.5973 101.328 76.2771 101.334 75.9547V51.522C101.334 50.8591 101.598 50.2234 102.069 49.7546C102.539 49.2859 103.177 49.0226 103.842 49.0226C104.507 49.0226 105.144 49.2859 105.614 49.7546C106.085 50.2234 106.349 50.8591 106.349 51.522V73.7137H116.594Z" fill="white"/>
  <path d="M122.342 53.4177C122.342 51.4333 123.338 50.5734 125.11 50.5734C126.925 50.5734 127.919 51.4333 127.919 53.4177C127.919 55.0985 126.924 56.1298 125.11 56.1298C124.741 56.1686 124.368 56.1255 124.017 56.0037C123.667 55.8818 123.348 55.6841 123.084 55.4248C122.819 55.1656 122.616 54.8511 122.487 54.5041C122.359 54.1571 122.31 53.7861 122.342 53.4177ZM127.444 76.384C127.444 77.0012 127.198 77.5931 126.76 78.0295C126.323 78.4659 125.729 78.7111 125.11 78.7111C124.49 78.7111 123.897 78.4659 123.459 78.0295C123.021 77.5931 122.775 77.0012 122.775 76.384V60.7865C122.775 60.1693 123.021 59.5774 123.459 59.141C123.897 58.7046 124.49 58.4595 125.11 58.4595C125.729 58.4595 126.323 58.7046 126.76 59.141C127.198 59.5774 127.444 60.1693 127.444 60.7865V76.384Z" fill="white"/>
  <path d="M137.645 77.2757L130.729 61.6762C130.613 61.3885 130.554 61.0812 130.556 60.7713C130.554 60.4653 130.613 60.162 130.73 59.8789C130.847 59.5959 131.019 59.3387 131.236 59.1223C131.453 58.9059 131.711 58.7346 131.995 58.6182C132.279 58.5018 132.583 58.4427 132.89 58.4442C133.358 58.4374 133.816 58.5745 134.203 58.8366C134.59 59.0988 134.886 59.4734 135.051 59.9094L139.807 71.8887L144.562 59.9094C144.728 59.4734 145.024 59.0988 145.411 58.8367C145.798 58.5745 146.256 58.4375 146.724 58.4442C147.031 58.4428 147.335 58.5019 147.619 58.6184C147.903 58.7348 148.161 58.9061 148.378 59.1225C148.595 59.3389 148.766 59.5961 148.883 59.8791C149 60.1621 149.059 60.4653 149.058 60.7713C149.059 61.0812 149 61.3884 148.885 61.6762L141.969 77.2757C141.787 77.6976 141.486 78.0573 141.102 78.3101C140.718 78.5628 140.267 78.6976 139.807 78.6976C139.347 78.6976 138.896 78.5628 138.512 78.3101C138.128 78.0573 137.826 77.6976 137.645 77.2757Z" fill="white"/>
  <path d="M151.953 53.4177C151.953 51.4333 152.949 50.5734 154.72 50.5734C156.535 50.5734 157.53 51.4333 157.53 53.4177C157.53 55.0985 156.535 56.1298 154.72 56.1298C154.351 56.1686 153.978 56.1256 153.628 56.0037C153.278 55.8818 152.959 55.6841 152.694 55.4248C152.43 55.1656 152.226 54.8511 152.098 54.5041C151.97 54.157 151.921 53.786 151.953 53.4177ZM157.054 76.384C157.054 77.0011 156.808 77.5929 156.37 78.0293C155.932 78.4656 155.339 78.7107 154.72 78.7107C154.101 78.7107 153.507 78.4656 153.069 78.0293C152.631 77.5929 152.385 77.0011 152.385 76.384V60.7865C152.385 60.1694 152.631 59.5776 153.069 59.1413C153.507 58.7049 154.101 58.4598 154.72 58.4598C155.339 58.4598 155.932 58.7049 156.37 59.1413C156.808 59.5776 157.054 60.1694 157.054 60.7865V76.384Z" fill="white"/>
  <path d="M179.274 65.6841V76.4568C179.273 76.7581 179.211 77.0561 179.092 77.3332C178.973 77.6103 178.8 77.8607 178.582 78.0697C178.365 78.2787 178.107 78.4419 177.825 78.5497C177.542 78.6575 177.241 78.7076 176.939 78.6972C176.635 78.7154 176.331 78.6705 176.045 78.5655C175.759 78.4605 175.499 78.2976 175.279 78.0871C175.06 77.8766 174.887 77.623 174.771 77.3424C174.655 77.0618 174.598 76.7602 174.605 76.4568V66.5453C174.605 64.0892 173.609 62.4091 170.801 62.4091C167.559 62.4091 166.478 64.3049 166.478 66.8469V76.4568C166.455 77.0587 166.199 77.6284 165.764 78.0462C165.329 78.464 164.748 78.6974 164.144 78.6974C163.539 78.6974 162.959 78.464 162.523 78.0462C162.088 77.6284 161.832 77.0587 161.81 76.4568V60.7713C161.804 60.4624 161.861 60.1557 161.976 59.8688C162.091 59.5819 162.262 59.3208 162.479 59.1005C162.696 58.8803 162.955 58.7053 163.241 58.5859C163.527 58.4665 163.834 58.405 164.144 58.405C164.454 58.405 164.76 58.4665 165.046 58.5859C165.332 58.7053 165.591 58.8803 165.808 59.1005C166.026 59.3208 166.197 59.5819 166.312 59.8688C166.427 60.1557 166.483 60.4624 166.478 60.7713C167.299 59.5218 169.115 58.1856 172.011 58.1856C177.89 58.1856 179.274 61.9348 179.274 65.6841Z" fill="white"/>
  <path d="M182.948 68.5138C182.948 61.4903 186.363 58.1717 192.199 58.1717C197.429 58.1717 201.147 61.059 201.147 66.79V77.6924C201.147 83.639 198.208 87 191.809 87C188.308 87 185.714 85.9231 184.245 84.1557C183.96 83.8017 183.807 83.36 183.813 82.9061C183.82 82.36 184.041 81.8382 184.428 81.4519C184.816 81.0656 185.339 80.8452 185.887 80.8377C186.393 80.8538 186.879 81.0356 187.27 81.355C188.555 82.4002 190.152 82.9913 191.809 83.0358C194.879 83.0358 196.435 81.4416 196.435 78.8129V77.1751C195.134 78.3132 193.455 78.9277 191.724 78.8989C186.276 78.8989 182.948 75.538 182.948 68.5138ZM196.478 66.79C196.478 63.8167 194.706 62.1366 192.199 62.1366C189.213 62.1366 187.573 64.291 187.573 68.5138C187.573 72.7803 189.259 74.9341 192.199 74.9341C194.792 74.9341 196.478 72.7367 196.478 72.7367V66.79Z" fill="white"/>
  <path d="M208.538 63.443C208.538 67.9675 219.907 66.2873 219.907 73.1819C219.907 77.1031 216.665 78.8705 212.558 78.8705C209.013 78.8705 206.29 77.1897 205.166 75.7675C204.973 75.5379 204.866 75.2483 204.863 74.9486C204.864 74.6174 204.996 74.2997 205.231 74.0655C205.466 73.8312 205.784 73.6995 206.117 73.6991C206.296 73.7031 206.473 73.7433 206.637 73.8174C206.801 73.8916 206.947 73.9981 207.068 74.1304C207.787 74.8418 208.646 75.3968 209.591 75.7602C210.536 76.1236 211.546 76.2876 212.558 76.2418C215.022 76.2418 217.137 75.4229 217.137 73.1825C217.137 68.744 205.768 70.5108 205.768 63.4437C205.768 59.8671 208.707 58.2299 212.382 58.2299C215.321 58.2299 217.613 59.2222 218.951 60.9876C219.143 61.218 219.249 61.5068 219.253 61.8059C219.253 62.1373 219.121 62.4552 218.886 62.6896C218.651 62.9241 218.332 63.0559 218 63.056C217.83 63.0575 217.661 63.0238 217.505 62.9569C217.349 62.8901 217.208 62.7916 217.092 62.6678C216.48 62.0505 215.744 61.5699 214.931 61.2579C214.119 60.9459 213.25 60.8096 212.38 60.858C210.44 60.8573 208.538 61.4606 208.538 63.443Z" fill="white"/>
  <path d="M241.867 68.5277C241.867 75.5949 238.409 78.9128 232.789 78.9128C227.215 78.9128 223.711 75.5949 223.711 68.5277C223.711 61.4606 227.212 58.1856 232.789 58.1856C238.409 58.1856 241.867 61.4606 241.867 68.5277ZM239.057 68.5277C239.057 63.0984 236.766 60.6853 232.789 60.6853C228.812 60.6853 226.521 63.0984 226.521 68.5277C226.521 74.0437 228.811 76.4138 232.789 76.4138C236.766 76.4138 239.057 74.0437 239.057 68.5277Z" fill="white"/>
  <path d="M246.016 61.3898C245.672 61.3898 245.342 61.2536 245.099 61.0111C244.856 60.7687 244.719 60.4398 244.719 60.0969C244.719 59.7541 244.856 59.4252 245.099 59.1828C245.342 58.9403 245.672 58.8041 246.016 58.8041H247.486V56.2621C247.486 52.3839 249.69 48.8536 254.964 48.8536C255.308 48.8536 255.638 48.9898 255.881 49.2322C256.125 49.4747 256.261 49.8035 256.261 50.1464C256.261 50.4893 256.125 50.8181 255.881 51.0606C255.638 51.3031 255.308 51.4393 254.964 51.4393C251.593 51.4393 250.253 53.464 250.253 56.268V58.81H254.187C254.531 58.81 254.86 58.9463 255.104 59.1887C255.347 59.4312 255.484 59.76 255.484 60.1029C255.484 60.4458 255.347 60.7746 255.104 61.0171C254.86 61.2595 254.531 61.3957 254.187 61.3957H250.253V77.3372C250.253 77.7029 250.107 78.0536 249.848 78.3122C249.588 78.5708 249.236 78.716 248.87 78.716C248.503 78.716 248.151 78.5708 247.892 78.3122C247.632 78.0536 247.486 77.7029 247.486 77.3372V61.3957L246.016 61.3898Z" fill="white"/>
  <path d="M260.627 54.2796C260.636 53.9171 260.785 53.5721 261.043 53.3155C261.3 53.059 261.646 52.9105 262.01 52.9005C262.376 52.903 262.726 53.0492 262.985 53.3073C263.244 53.5654 263.39 53.9146 263.393 54.2796V58.8041H266.203C266.547 58.8041 266.877 58.9403 267.12 59.1828C267.363 59.4252 267.5 59.754 267.5 60.0969C267.5 60.4398 267.363 60.7687 267.12 61.0111C266.877 61.2536 266.547 61.3898 266.203 61.3898H263.393V73.283C263.393 75.1352 264.431 76.1274 265.9 76.1274C266.075 76.1206 266.249 76.1489 266.412 76.2108C266.576 76.2727 266.725 76.3669 266.851 76.4876C266.977 76.6083 267.077 76.7531 267.145 76.9134C267.214 77.0737 267.249 77.246 267.249 77.4202C267.249 77.5944 267.214 77.7668 267.145 77.927C267.077 78.0873 266.977 78.2321 266.851 78.3528C266.725 78.4736 266.576 78.5677 266.412 78.6296C266.249 78.6915 266.075 78.7199 265.9 78.7131C262.485 78.7131 260.627 76.4297 260.627 73.2837V61.3898H258.94C258.596 61.3898 258.267 61.2536 258.023 61.0111C257.78 60.7687 257.643 60.4398 257.643 60.0969C257.643 59.754 257.78 59.4252 258.023 59.1828C258.267 58.9403 258.596 58.8041 258.94 58.8041H260.627V54.2796Z" fill="white"/>
  <path d="M69.9011 70.6955C69.5216 70.5916 69.1675 70.4115 68.8602 70.1664C68.553 69.9213 68.2993 69.6163 68.1144 69.27C67.9296 68.9237 67.8177 68.5435 67.7854 68.1525C67.7532 67.7616 67.8013 67.3682 67.9269 66.9965L74.5076 46.2025C73.7012 46.0688 72.8851 46.0014 72.0677 46.0007H67.552C63.5637 46.0124 59.7421 47.5969 56.9218 50.408C54.1016 53.2192 52.5119 57.0286 52.5 61.0042V65.5055C52.5116 69.4814 54.1011 73.291 56.9214 76.1024C59.7417 78.9137 63.5635 80.4982 67.552 80.5097H72.0677C74.2894 80.5077 76.483 80.015 78.4909 79.067C80.4988 78.1191 82.2711 76.7395 83.6803 75.0274L69.9011 70.6955Z" fill="white"/>
  <path d="M80.2078 48.4038L74.5674 66.2238L86.4375 69.9578C86.8902 68.5164 87.12 67.0146 87.119 65.5041V61.0042C87.114 58.4957 86.4789 56.0284 85.2717 53.8274C84.0645 51.6264 82.3236 49.7618 80.2078 48.4038Z" fill="white"/>
  </g>
  <defs>
  <clipPath id="clip0_15_765">
  <rect width="215" height="41" fill="white" transform="translate(52.5 46)"/>
  </clipPath>
  </defs>
  </svg>
  