<svg width="130" height="56" viewBox="0 0 130 56" fill="none" xmlns="http://www.w3.org/2000/svg">
<path d="M63.8512 23.5745L62.3858 18.4687H63.6035L64.4993 21.9441L65.3785 18.4687H66.493L65.0276 23.5745V26.0964H63.8512V23.5745Z" fill="white"/>
<path d="M67.2317 20.3823C67.2317 19.1688 67.8467 18.463 68.9902 18.463C70.1336 18.463 70.7486 19.1688 70.7486 20.3823V24.3448C70.7486 25.583 70.1336 26.2641 68.9902 26.2641C67.8467 26.2641 67.2317 25.5624 67.2317 24.3448V20.3823ZM68.3875 24.4149C68.3875 24.9598 68.6228 25.1661 68.9902 25.1661C69.3575 25.1661 69.5887 24.9598 69.5887 24.4149V20.2874C69.5887 19.7467 69.3575 19.5403 68.9902 19.5403C68.6228 19.5403 68.3875 19.7467 68.3875 20.2874V24.4149Z" fill="white"/>
<path d="M72.6002 18.4687V24.3505C72.6002 24.8912 72.8355 25.0976 73.2029 25.0976C73.5702 25.0976 73.8055 24.9077 73.8055 24.3505V18.4687H74.9035V24.2762C74.9035 25.5145 74.3174 26.1996 73.174 26.1996C72.0305 26.1996 71.4444 25.4938 71.4444 24.2762V18.4687H72.6002Z" fill="white"/>
<path d="M76.6575 20.5655V26.0964H75.6132V18.4687H77.0662L78.255 23.0297V18.4687H79.2952V26.0964H78.094L76.6575 20.5655Z" fill="white"/>
<path d="M81.8426 21.9219H83.469V24.3448C83.469 25.583 82.8829 26.2641 81.7394 26.2641C80.596 26.2641 80.0016 25.5624 80.0016 24.3448V20.3823C80.0016 19.1688 80.5878 18.463 81.7312 18.463C82.8746 18.463 83.4607 19.1688 83.4607 20.3823V21.1335H82.3627V20.308C82.3627 19.7632 82.1274 19.5568 81.7601 19.5568C81.3927 19.5568 81.1574 19.7632 81.1574 20.308V24.4356C81.1574 24.9763 81.3927 25.1703 81.7601 25.1703C82.1274 25.1703 82.3627 24.9763 82.3627 24.4356V23.0074H81.8344L81.8426 21.9219Z" fill="white"/>
<path d="M56.71 29.8431L56.4045 32.7613H55.2735L54.6708 27.2923H55.4922L55.9339 31.6015L56.3302 27.2923H57.1351L57.5479 31.6303L57.9855 27.2923H58.7037L58.1176 32.7613H57.0196L56.71 29.8431Z" fill="white"/>
<path d="M59.9503 29.5955H61.0937V30.3838H59.9503V31.9853H61.3868V32.7613H59.1288V27.2923H61.3868V28.0683H59.9503V29.5955Z" fill="white"/>
<path d="M64.396 28.5516V28.7456C64.396 29.3028 64.235 29.666 63.8511 29.8435C64.2928 30.021 64.4661 30.4461 64.4661 31.0157V31.4574C64.4661 32.3077 64.0533 32.7452 63.2278 32.7452H61.9027V27.2762H63.1617C64.0286 27.2762 64.4001 27.6889 64.4001 28.5516M62.7489 28.0687V29.5216H63.0544C63.364 29.5216 63.5539 29.373 63.5539 28.9355V28.6176C63.5539 28.2049 63.4218 28.0604 63.1411 28.0604L62.7489 28.0687ZM62.7489 30.2976V31.9857H63.2195C63.4961 31.9857 63.6323 31.8536 63.6323 31.4409V30.9745C63.6323 30.4585 63.4713 30.3141 63.0915 30.3141L62.7489 30.2976Z" fill="white"/>
<path d="M66.7406 31.1763L67.2979 27.2923H68.4578V32.7613H67.6776V28.8442L67.0915 32.7613H66.3154L65.7004 28.8897V32.7613H64.9656V27.2923H66.1255L66.7406 31.1763Z" fill="white"/>
<path d="M71.7561 32.7452H70.9305L70.7819 31.7463H69.754L69.6013 32.7452H68.8335L69.6839 27.2762H70.9222L71.7561 32.7452ZM69.8655 31.0157H70.6911L70.2783 28.242L69.8655 31.0157Z" fill="white"/>
<path d="M73.2668 27.2338C74.0924 27.2338 74.5052 27.7291 74.5052 28.6124V28.7857H73.7126V28.5505C73.7126 28.1377 73.564 28.0098 73.2998 28.0098C73.0357 28.0098 72.8871 28.1542 72.8871 28.5505C72.8871 29.6814 74.5134 29.8878 74.5134 31.4398C74.5134 32.3189 74.1007 32.8184 73.2751 32.8184C72.4495 32.8184 72.0367 32.3189 72.0367 31.4398V31.1013H72.8128V31.5141C72.8128 31.9268 72.9779 32.0424 73.2255 32.0424C73.4732 32.0424 73.6383 31.8938 73.6383 31.5141C73.6383 30.3831 71.9872 30.1809 71.9872 28.6248C71.9872 27.7415 72.4 27.2462 73.2255 27.2462" fill="white"/>
<path d="M74.7323 27.2923H77.2998V28.0683H76.4371V32.7613H75.5991V28.0683H74.7323V27.2923Z" fill="white"/>
<path d="M78.4888 29.5955H79.6322V30.3838H78.4888V31.9853H79.9253V32.7613H77.6673V27.2923H79.9253V28.0683H78.4888V29.5955Z" fill="white"/>
<path d="M82.1738 32.7448C82.1061 32.5274 82.0808 32.299 82.0995 32.072V31.2052C82.0995 30.6934 81.9385 30.5159 81.5587 30.5159H81.2656V32.7448H80.4401V27.2923H81.6784C82.5453 27.2923 82.9168 27.705 82.9168 28.5512V28.9639C82.945 29.1826 82.9084 29.4048 82.8115 29.6029C82.7147 29.801 82.5618 29.9663 82.3719 30.0784C82.7847 30.2559 82.9292 30.681 82.9292 31.2382V32.0885C82.9158 32.3125 82.9466 32.5369 83.02 32.7489L82.1738 32.7448ZM81.2656 28.0518V29.7399H81.5876C81.8972 29.7399 82.0871 29.5913 82.0871 29.1662V28.642C82.0871 28.2292 81.955 28.0848 81.6743 28.0848L81.2656 28.0518Z" fill="white"/>
<path d="M72.858 37.4244V38.155C72.858 39.0383 72.4452 39.5336 71.6196 39.5336C70.7941 39.5336 70.3813 39.0383 70.3813 38.155V35.3111C70.3813 34.4319 70.7941 33.9325 71.6196 33.9325C72.4452 33.9325 72.858 34.4319 72.858 35.3111V35.8394H72.0654V35.2533C72.0654 34.8406 71.9045 34.7085 71.6527 34.7085C71.4009 34.7085 71.2399 34.8571 71.2399 35.2533V38.2004C71.2399 38.6131 71.4009 38.7287 71.6527 38.7287C71.9045 38.7287 72.0654 38.5801 72.0654 38.2004V37.4244H72.858Z" fill="white"/>
<path d="M76.0533 39.4643H75.2277L75.0791 38.4654H74.0513L73.9068 39.4643H73.1431L73.9852 33.9829H75.2236L76.0533 39.4643ZM74.1627 37.7307H74.9883L74.5755 34.9612L74.1627 37.7307Z" fill="white"/>
<path d="M78.2079 37.878L78.7652 33.9898H79.9251V39.463H79.1326V35.5294L78.5629 39.463H77.7828L77.1677 35.5913V39.463H76.4371V33.9898H77.5929L78.2079 37.878Z" fill="white"/>
<path d="M82.9922 35.3409V36.0467C82.9922 36.9259 82.5794 37.3964 81.7538 37.3964H81.341V39.4602H80.5154V33.9829H81.7538C82.6041 33.9829 82.9922 34.4535 82.9922 35.3326M81.341 34.763V36.608H81.7538C82.018 36.608 82.1666 36.476 82.1666 36.0962V35.2707C82.1666 34.858 82.018 34.7589 81.7538 34.7589L81.341 34.763Z" fill="white"/>
<path d="M92.1019 35.603V21.6106H87.0127V18.4905H95.8228V35.603H92.1019Z" fill="#07E23E"/>
<path d="M99.742 35.603V32.4349H109.968C111.409 32.4349 112.545 32.0989 113.377 31.4269C114.209 30.7549 114.737 29.8028 114.962 28.5708H103.487C101.839 28.5708 100.55 28.1148 99.622 27.2028C98.6938 26.2907 98.2297 25.0747 98.2297 23.5546C98.2297 22.0186 98.6938 20.7946 99.622 19.8825C100.55 18.9545 101.839 18.4905 103.487 18.4905H110.304C112.177 18.4905 113.777 18.8425 115.106 19.5465C116.434 20.2505 117.45 21.2426 118.154 22.5226C118.858 23.8026 119.21 25.3067 119.21 27.0347C119.21 28.7628 118.858 30.2668 118.154 31.5469C117.45 32.8269 116.434 33.8269 115.106 34.547C113.777 35.251 112.177 35.603 110.304 35.603H99.742ZM104.231 25.4507H114.962C114.721 24.2187 114.177 23.2746 113.329 22.6186C112.497 21.9626 111.361 21.6346 109.92 21.6346H104.231C102.983 21.6346 102.359 22.2746 102.359 23.5546C102.359 24.8187 102.983 25.4507 104.231 25.4507Z" fill="#07E23E"/>
<path d="M120.874 21.7394C120.348 21.7394 119.961 21.6092 119.713 21.3486C119.465 21.082 119.341 20.7335 119.341 20.3033V18.1035H117.988V17.0582H119.341V15.622H120.657V17.0582H122.599V18.1035H120.657V20.1396C120.657 20.5093 120.838 20.6941 121.201 20.6941H122.853V21.7394H120.874Z" fill="#07E23E"/>
<path d="M123.53 21.7394V15.2403H124.846V17.0582H127.605C128.137 17.0582 128.524 17.1915 128.766 17.4582C129.014 17.7187 129.138 18.0642 129.138 18.4944V21.7394H127.822V18.6489C127.822 18.2853 127.641 18.1035 127.278 18.1035H124.846V21.7394H123.53Z" fill="#07E23E"/>
<path fill-rule="evenodd" clip-rule="evenodd" d="M125.819 34.9106H119.19V33.1612H127.981C128.474 33.1612 128.872 33.5528 128.872 34.0359V42.5497H127.09V36.1366L120.59 42.4708L119.335 41.2291L125.819 34.9106Z" fill="#07E23E"/>
<path d="M98.8653 6.06835C99.5489 6.37282 100.172 6.79844 100.704 7.32469C100.755 7.5 100.026 7.19321 99.077 6.68191C95.41 4.73726 91.5246 3.23662 87.503 2.21167C85.5473 1.70767 80.096 1.21098 83.6061 1.89028C87.9847 2.62071 89.6266 3.51184 94.3117 5.37444C94.4647 5.43333 94.6094 5.5119 94.7422 5.60818C94.8006 5.65931 94.6911 5.60818 94.5014 5.55705C91.2659 4.1955 87.8984 3.17233 84.4526 2.50384C84.9907 2.65227 85.5155 2.84529 86.0216 3.08088H86.1092C86.5294 3.20058 86.9231 3.39886 87.2695 3.66523C87.2695 3.71636 86.2478 3.74558 83.088 3.14662C81.6285 2.86175 81.5555 3.05897 82.891 3.30001C84.9095 3.61327 86.8888 4.14221 88.7947 4.87775C89.29 5.03864 89.7771 5.22391 90.2542 5.43287C91.2905 5.82731 92.0348 6.26557 91.9691 6.38243C91.3039 6.31119 90.6538 6.13621 90.0426 5.86383H89.9185C88.459 5.36713 88.8531 5.6447 92.5967 7.32469C92.8376 7.40397 93.0589 7.53342 93.2462 7.70452C93.2462 7.75565 92.9251 7.65339 92.5602 7.49269C89.2943 6.0835 85.8604 5.1015 82.3436 4.57096C81.8616 4.48114 81.3739 4.425 80.8841 4.40296C80.8841 4.40296 81.0228 4.40296 83.0734 4.84122C84.5041 5.09164 85.897 5.52365 87.2184 6.12678C87.3571 6.20713 87.4519 6.28017 87.4811 6.29478C87.5103 6.30939 87.4811 6.33861 87.2622 6.29478C86.4376 6.06835 84.4745 5.73235 84.0513 5.65931H84.0075C81.4435 5.32318 78.8533 5.23269 76.2721 5.38905C73.5872 5.52997 70.9313 6.01353 68.3688 6.828C65.6784 7.7164 63.0882 8.88414 60.6407 10.3122C57.4452 12.1863 54.5023 14.4618 51.8836 17.0833C49.18 19.7678 46.7366 22.7026 44.586 25.8484C44.0752 26.5789 42.1048 29.5006 42.1048 29.5006C41.6597 30.231 41.2291 30.9615 40.8059 31.6919C40.3826 32.4223 39.974 33.1966 39.5726 34.0074L38.3466 36.542L35.9311 41.655C35.9311 41.655 24.4082 25.1034 24.3572 25.045C24.3572 25.2057 12.7248 52.5822 12.1045 53.992C10.4261 51.0702 8.9228 48.3238 7.84276 46.2056C7.15685 44.9421 6.56181 43.6313 6.06216 42.2832C6.03257 42.1951 6.0106 42.1047 5.99648 42.0129C5.9235 41.5892 6.13513 41.7061 6.60218 42.1736C6.81381 42.3489 7.01814 42.5388 7.21517 42.736L6.86489 41.9398C5.6316 39.1788 1.61794 30.0922 1.37712 28.9674C1.19645 28.3093 1.05512 27.6409 0.953857 26.966H1.17278C1.66603 27.2087 2.13102 27.5051 2.55932 27.8498L2.82203 27.9886C2.69068 27.3385 3.10664 26.966 3.39125 27.3604L2.22363 24.8551C2.00036 24.4742 1.81928 24.07 1.68361 23.6498C1.48055 22.9583 1.34372 22.2491 1.27495 21.5316C1.27495 21.4805 1.27495 21.422 1.36252 21.4366C1.48254 21.5077 1.58486 21.6051 1.66172 21.7215C1.7482 21.8195 1.82632 21.9245 1.89524 22.0356L2.23823 22.5104L2.57392 23.0728L2.50824 22.7222C2.50824 22.5542 2.3258 22.0283 2.25282 21.7872C2.17985 21.5462 2.36229 21.4512 2.6396 21.7215C3.38145 22.5553 4.039 23.4606 4.60264 24.4241L4.4348 24.0662C3.2307 21.5681 3.26719 20.7573 4.52237 22.2474C5.50754 23.4161 11.528 33.1235 11.528 33.1235L22.5474 7.17861C23.102 7.97478 35.2524 27.0829 35.2524 27.0829C35.2524 27.0829 36.0698 25.7754 36.6317 24.95L37.3103 23.9566C37.6241 23.4965 37.9452 23.0363 38.2882 22.5761C38.9547 21.6606 39.6456 20.7549 40.3607 19.8589C40.7694 19.333 41.1854 18.8071 41.6013 18.2958C42.0173 17.7845 42.4697 17.2805 42.9222 16.8349C45.1318 14.3367 47.5486 12.03 50.1468 9.93964C52.8009 7.77437 55.6748 5.89415 58.7214 4.32992C61.304 3.01061 64.0226 1.97703 66.829 1.2475C69.6531 0.510837 72.552 0.0991318 75.4693 0.0203745C79.593 -0.079685 83.709 0.427293 87.6855 1.52506C91.5746 2.60296 95.3262 4.12752 98.8653 6.06835Z" fill="#07E23E"/>
<path d="M118.069 49.7557V50.0137H116.777V49.0003H117.272C117.493 49.0003 117.675 49.0756 117.836 49.2243C117.998 49.3734 118.069 49.5508 118.069 49.7557ZM117.024 50.6351C116.853 50.7842 116.777 50.9706 116.777 51.194V53.2049V55.2014C116.777 55.4248 116.853 55.6112 117.024 55.7602C117.03 55.7649 117.035 55.7686 117.04 55.7732C117.11 55.8374 117.196 55.8895 117.289 55.9253C117.387 55.9645 117.491 55.984 117.604 55.984H118.068V50.4111H117.604C117.382 50.4111 117.195 50.4861 117.024 50.6351ZM124.644 51.1406C124.638 50.9468 124.567 50.778 124.413 50.6354C124.251 50.4867 124.07 50.4114 123.848 50.4114H123.627V49.7276C123.627 49.523 123.556 49.3499 123.394 49.2104C123.234 49.0707 123.052 49.0003 122.83 49.0003H122.414V50.0134C122.414 50.0134 122.415 53.0346 122.415 53.9946C122.415 54.6056 122.567 55.0339 122.689 55.244C122.805 55.4458 123.06 55.7198 123.502 55.8689C123.707 55.9383 123.99 55.9691 124.203 55.9827C124.216 55.983 124.228 55.983 124.239 55.983H124.645V55.4523C124.645 55.3332 124.605 55.1594 124.501 55.0511C124.355 54.8975 124.208 54.8231 124.07 54.8231C123.998 54.8206 123.898 54.8151 123.873 54.8034C123.711 54.7475 123.628 54.6423 123.628 54.4747V51.352H124.645V51.1665C124.646 51.1668 124.645 51.1443 124.644 51.1406ZM129.5 55.3693V55.9778C129.5 55.9778 129.401 55.9769 129.163 55.9278C128.927 55.879 128.723 55.8102 128.583 55.717C128.575 55.722 128.155 55.9833 127.546 55.9833C127.546 55.9833 127.171 55.9836 127.158 55.9833C127.11 55.9803 126.746 55.9688 126.4 55.8565C126.099 55.7587 125.797 55.5023 125.682 55.335C125.429 54.9684 125.352 54.5392 125.352 54.193C125.352 53.7977 125.406 53.2639 125.817 52.8782C126.325 52.402 127.034 52.4097 127.073 52.4042V52.402H128.052V51.7667C128.052 51.655 128.034 51.5593 127.943 51.4757C127.853 51.3918 127.764 51.3523 127.623 51.3523H126.448C126.247 51.3523 126.036 51.2801 125.886 51.1406C125.735 51.0008 125.625 50.8357 125.625 50.6496V50.4117H127.744C128.126 50.4478 128.469 50.5586 128.77 50.782C129.071 51.0054 129.265 51.2828 129.344 51.5991V54.6154C129.422 54.7213 129.5 55.0977 129.5 55.3693ZM127.716 54.8256C127.911 54.8256 128.043 54.7315 128.051 54.5738V53.3423H126.9C126.699 53.3423 126.564 53.4419 126.564 53.6098V54.5583C126.564 54.7259 126.699 54.8259 126.9 54.8259H127.716V54.8256ZM121.565 55.0518C121.419 54.8981 121.272 54.8237 121.134 54.8237C121.062 54.8212 120.962 54.8157 120.937 54.804C120.776 54.7481 120.692 54.6429 120.692 54.4753V51.352H121.71V51.1665C121.71 51.1665 121.709 51.1443 121.709 51.1406C121.703 50.9468 121.632 50.778 121.477 50.6354C121.316 50.4867 121.134 50.4114 120.912 50.4114H120.691V49H120.275C120.053 49 119.871 49.0704 119.71 49.2101C119.559 49.3407 119.488 49.5005 119.479 49.6875H119.477C119.477 49.6875 119.479 53.0346 119.479 53.9946C119.479 54.6059 119.63 55.0339 119.752 55.244C119.869 55.4458 120.124 55.7198 120.565 55.8689C120.77 55.9383 121.054 55.9691 121.266 55.9827C121.279 55.983 121.291 55.983 121.302 55.983H121.709V55.4523C121.71 55.3338 121.669 55.1601 121.565 55.0518ZM115.424 49.523V49.5227V49.0046H114.863C114.554 49.0046 114.303 49.2367 114.303 49.5227V54.1865C114.303 54.6154 113.927 54.9635 113.462 54.9635C112.998 54.9635 112.621 54.6154 112.621 54.1865C112.621 53.9002 112.37 53.6684 112.061 53.6684H111.5V54.1862V54.1865C111.5 54.1868 111.5 54.1871 111.5 54.1871C111.5 55.1885 112.379 56 113.462 56C114.535 56 115.406 55.2042 115.423 54.2168H115.424V49.523H115.424Z" fill="#47C6F1"/>
<path d="M78.9 54V50.51H80.225C80.565 50.51 80.825 50.6067 81.005 50.8C81.185 50.9933 81.275 51.2567 81.275 51.59C81.275 51.9233 81.185 52.1867 81.005 52.38C80.825 52.5733 80.565 52.67 80.225 52.67H79.555V54H78.9ZM79.555 52.135H80.09C80.2667 52.135 80.3933 52.1 80.47 52.03C80.5467 51.9567 80.585 51.8417 80.585 51.685V51.495C80.585 51.3383 80.5467 51.225 80.47 51.155C80.3933 51.0817 80.2667 51.045 80.09 51.045H79.555V52.135ZM82.998 54.06C82.8014 54.06 82.6247 54.0283 82.468 53.965C82.3147 53.9017 82.183 53.8117 82.073 53.695C81.9664 53.5783 81.883 53.4367 81.823 53.27C81.7664 53.1033 81.738 52.9167 81.738 52.71C81.738 52.5033 81.7664 52.3167 81.823 52.15C81.883 51.9833 81.9664 51.8417 82.073 51.725C82.183 51.6083 82.3147 51.5183 82.468 51.455C82.6247 51.3917 82.8014 51.36 82.998 51.36C83.1914 51.36 83.3664 51.3917 83.523 51.455C83.6797 51.5183 83.8114 51.6083 83.918 51.725C84.028 51.8417 84.1114 51.9833 84.168 52.15C84.228 52.3167 84.258 52.5033 84.258 52.71C84.258 52.9167 84.228 53.1033 84.168 53.27C84.1114 53.4367 84.028 53.5783 83.918 53.695C83.8114 53.8117 83.6797 53.9017 83.523 53.965C83.3664 54.0283 83.1914 54.06 82.998 54.06ZM82.998 53.57C83.1814 53.57 83.3264 53.515 83.433 53.405C83.5397 53.2917 83.593 53.1267 83.593 52.91V52.51C83.593 52.2933 83.5397 52.13 83.433 52.02C83.3264 51.9067 83.1814 51.85 82.998 51.85C82.8147 51.85 82.6697 51.9067 82.563 52.02C82.4564 52.13 82.403 52.2933 82.403 52.51V52.91C82.403 53.1267 82.4564 53.2917 82.563 53.405C82.6697 53.515 82.8147 53.57 82.998 53.57ZM84.5661 51.42H85.1011L85.3211 53.55H85.3661L85.7161 51.42H86.3011L86.6461 53.55H86.6911L86.9161 51.42H87.4261L87.0961 54H86.3211L86.0211 52.105H85.9761L85.6711 54H84.8961L84.5661 51.42ZM89.0541 54.06C88.8475 54.06 88.6641 54.0283 88.5041 53.965C88.3441 53.9017 88.2091 53.8117 88.0991 53.695C87.9925 53.5783 87.9108 53.4383 87.8541 53.275C87.7975 53.1083 87.7691 52.9217 87.7691 52.715C87.7691 52.505 87.7975 52.3167 87.8541 52.15C87.9141 51.9833 87.9975 51.8417 88.1041 51.725C88.2108 51.6083 88.3391 51.5183 88.4891 51.455C88.6425 51.3917 88.8141 51.36 89.0041 51.36C89.1908 51.36 89.3591 51.3917 89.5091 51.455C89.6591 51.515 89.7858 51.6017 89.8891 51.715C89.9958 51.8283 90.0775 51.965 90.1341 52.125C90.1908 52.285 90.2191 52.4617 90.2191 52.655V52.865H88.4091V52.93C88.4091 53.1167 88.4675 53.2683 88.5841 53.385C88.7008 53.4983 88.8641 53.555 89.0741 53.555C89.2341 53.555 89.3708 53.5233 89.4841 53.46C89.6008 53.3933 89.6975 53.3067 89.7741 53.2L90.1391 53.565C90.0458 53.7017 89.9091 53.8183 89.7291 53.915C89.5525 54.0117 89.3275 54.06 89.0541 54.06ZM89.0091 51.83C88.8291 51.83 88.6841 51.8867 88.5741 52C88.4641 52.1133 88.4091 52.2633 88.4091 52.45V52.485H89.5791V52.44C89.5791 52.2533 89.5275 52.105 89.4241 51.995C89.3241 51.885 89.1858 51.83 89.0091 51.83ZM90.8672 53.495H91.5072V51.925H90.8672V51.42H92.1472V52.125H92.1872C92.2105 52.035 92.2422 51.9483 92.2822 51.865C92.3255 51.7783 92.3789 51.7033 92.4422 51.64C92.5089 51.5733 92.5889 51.52 92.6822 51.48C92.7755 51.44 92.8872 51.42 93.0172 51.42H93.2972V52.02H92.7672C92.5739 52.02 92.4222 52.0767 92.3122 52.19C92.2022 52.3033 92.1472 52.4483 92.1472 52.625V53.495H93.0422V54H90.8672V53.495ZM95.0502 54.06C94.8436 54.06 94.6602 54.0283 94.5002 53.965C94.3402 53.9017 94.2052 53.8117 94.0952 53.695C93.9886 53.5783 93.9069 53.4383 93.8502 53.275C93.7936 53.1083 93.7652 52.9217 93.7652 52.715C93.7652 52.505 93.7936 52.3167 93.8502 52.15C93.9102 51.9833 93.9936 51.8417 94.1002 51.725C94.2069 51.6083 94.3352 51.5183 94.4852 51.455C94.6386 51.3917 94.8102 51.36 95.0002 51.36C95.1869 51.36 95.3552 51.3917 95.5052 51.455C95.6552 51.515 95.7819 51.6017 95.8852 51.715C95.9919 51.8283 96.0736 51.965 96.1302 52.125C96.1869 52.285 96.2152 52.4617 96.2152 52.655V52.865H94.4052V52.93C94.4052 53.1167 94.4636 53.2683 94.5802 53.385C94.6969 53.4983 94.8602 53.555 95.0702 53.555C95.2302 53.555 95.3669 53.5233 95.4802 53.46C95.5969 53.3933 95.6936 53.3067 95.7702 53.2L96.1352 53.565C96.0419 53.7017 95.9052 53.8183 95.7252 53.915C95.5486 54.0117 95.3236 54.06 95.0502 54.06ZM95.0052 51.83C94.8252 51.83 94.6802 51.8867 94.5702 52C94.4602 52.1133 94.4052 52.2633 94.4052 52.45V52.485H95.5752V52.44C95.5752 52.2533 95.5236 52.105 95.4202 51.995C95.3202 51.885 95.1819 51.83 95.0052 51.83ZM98.5033 53.545H98.4683C98.3983 53.7017 98.3016 53.8267 98.1783 53.92C98.0583 54.0133 97.8983 54.06 97.6983 54.06C97.5516 54.06 97.4166 54.0333 97.2933 53.98C97.1733 53.9233 97.0699 53.84 96.9833 53.73C96.8966 53.6167 96.8299 53.475 96.7833 53.305C96.7366 53.135 96.7133 52.9367 96.7133 52.71C96.7133 52.2567 96.8033 51.9183 96.9833 51.695C97.1633 51.4717 97.4016 51.36 97.6983 51.36C97.8983 51.36 98.0583 51.4067 98.1783 51.5C98.3016 51.5933 98.3983 51.7183 98.4683 51.875H98.5033V50.3H99.1433V54H98.5033V53.545ZM97.9683 53.55C98.0416 53.55 98.1099 53.5417 98.1733 53.525C98.2399 53.505 98.2966 53.4783 98.3433 53.445C98.3933 53.4083 98.4316 53.3633 98.4583 53.31C98.4883 53.2533 98.5033 53.1883 98.5033 53.115V52.305C98.5033 52.2317 98.4883 52.1683 98.4583 52.115C98.4316 52.0583 98.3933 52.0133 98.3433 51.98C98.2966 51.9433 98.2399 51.9167 98.1733 51.9C98.1099 51.88 98.0416 51.87 97.9683 51.87C97.7816 51.87 97.6366 51.9267 97.5333 52.04C97.4333 52.1533 97.3833 52.3083 97.3833 52.505V52.915C97.3833 53.1117 97.4333 53.2667 97.5333 53.38C97.6366 53.4933 97.7816 53.55 97.9683 53.55ZM102.829 50.3H103.469V51.875H103.504C103.574 51.7183 103.669 51.5933 103.789 51.5C103.913 51.4067 104.074 51.36 104.274 51.36C104.421 51.36 104.554 51.3883 104.674 51.445C104.798 51.4983 104.903 51.5817 104.989 51.695C105.076 51.805 105.143 51.945 105.189 52.115C105.236 52.285 105.259 52.4833 105.259 52.71C105.259 52.9367 105.236 53.135 105.189 53.305C105.143 53.475 105.076 53.6167 104.989 53.73C104.903 53.84 104.798 53.9233 104.674 53.98C104.554 54.0333 104.421 54.06 104.274 54.06C104.074 54.06 103.913 54.0133 103.789 53.92C103.669 53.8267 103.574 53.7017 103.504 53.545H103.469V54H102.829V50.3ZM104.004 53.55C104.191 53.55 104.334 53.4933 104.434 53.38C104.538 53.2667 104.589 53.1117 104.589 52.915V52.505C104.589 52.3083 104.538 52.1533 104.434 52.04C104.334 51.9267 104.191 51.87 104.004 51.87C103.858 51.87 103.731 51.9067 103.624 51.98C103.521 52.05 103.469 52.1583 103.469 52.305V53.115C103.469 53.2617 103.521 53.3717 103.624 53.445C103.731 53.515 103.858 53.55 104.004 53.55ZM107.687 51.42H108.337L107.102 54.46C107.032 54.6367 106.939 54.77 106.822 54.86C106.706 54.9533 106.541 55 106.327 55H105.857V54.495H106.472L106.667 53.975L105.627 51.42H106.307L106.702 52.5L106.977 53.32H107.012L107.287 52.5L107.687 51.42Z" fill="white"/>
</svg>
