<svg width="274" height="55" viewBox="0 0 274 55" fill="none" xmlns="http://www.w3.org/2000/svg">
<path d="M63.659 23.776L62.1936 18.6703H63.4114L64.3071 22.1457L65.1864 18.6703H66.3009L64.8355 23.776V26.298H63.659V23.776Z" fill="white"/>
<path d="M67.0396 20.5838C67.0396 19.3703 67.6546 18.6645 68.798 18.6645C69.9415 18.6645 70.5565 19.3703 70.5565 20.5838V24.5463C70.5565 25.7846 69.9415 26.4656 68.798 26.4656C67.6546 26.4656 67.0396 25.7639 67.0396 24.5463V20.5838ZM68.1954 24.6165C68.1954 25.1613 68.4306 25.3677 68.798 25.3677C69.1654 25.3677 69.3966 25.1613 69.3966 24.6165V20.4889C69.3966 19.9482 69.1654 19.7418 68.798 19.7418C68.4306 19.7418 68.1954 19.9482 68.1954 20.4889V24.6165Z" fill="white"/>
<path d="M72.4081 18.6703V24.552C72.4081 25.0927 72.6433 25.2991 73.0107 25.2991C73.3781 25.2991 73.6134 25.1092 73.6134 24.552V18.6703H74.7114V24.4777C74.7114 25.716 74.1252 26.4012 72.9818 26.4012C71.8384 26.4012 71.2522 25.6954 71.2522 24.4777V18.6703H72.4081Z" fill="white"/>
<path d="M76.4654 20.7671V26.298H75.421V18.6703H76.874L78.0629 23.2312V18.6703H79.1031V26.298H77.9019L76.4654 20.7671Z" fill="white"/>
<path d="M81.6505 22.1234H83.2769V24.5463C83.2769 25.7846 82.6907 26.4656 81.5473 26.4656C80.4039 26.4656 79.8095 25.7639 79.8095 24.5463V20.5838C79.8095 19.3703 80.3956 18.6645 81.539 18.6645C82.6825 18.6645 83.2686 19.3703 83.2686 20.5838V21.3351H82.1706V20.5095C82.1706 19.9647 81.9353 19.7583 81.5679 19.7583C81.2005 19.7583 80.9653 19.9647 80.9653 20.5095V24.6371C80.9653 25.1778 81.2005 25.3718 81.5679 25.3718C81.9353 25.3718 82.1706 25.1778 82.1706 24.6371V23.209H81.6422L81.6505 22.1234Z" fill="white"/>
<path d="M56.5178 30.0447L56.2124 32.9628H55.0813L54.4787 27.4938H55.3001L55.7418 31.803L56.1381 27.4938H56.943L57.3558 31.8319L57.7933 27.4938H58.5116L57.9254 32.9628H56.8274L56.5178 30.0447Z" fill="white"/>
<path d="M59.7581 29.797H60.9015V30.5854H59.7581V32.1869H61.1946V32.9628H58.9367V27.4938H61.1946V28.2698H59.7581V29.797Z" fill="white"/>
<path d="M64.2038 28.7531V28.9471C64.2038 29.5044 64.0428 29.8676 63.6589 30.0451C64.1006 30.2225 64.274 30.6477 64.274 31.2173V31.6589C64.274 32.5092 63.8612 32.9467 63.0356 32.9467H61.7106V27.4777H62.9696C63.8364 27.4777 64.2079 27.8905 64.2079 28.7531M62.5568 28.2702V29.7231H62.8623C63.1719 29.7231 63.3617 29.5745 63.3617 29.137V28.8192C63.3617 28.4064 63.2296 28.262 62.9489 28.262L62.5568 28.2702ZM62.5568 30.4991V32.1873H63.0274C63.3039 32.1873 63.4402 32.0552 63.4402 31.6424V31.176C63.4402 30.6601 63.2792 30.5156 62.8994 30.5156L62.5568 30.4991Z" fill="white"/>
<path d="M66.5485 31.3779L67.1057 27.4938H68.2657V32.9628H67.4855V29.0458L66.8993 32.9628H66.1233L65.5082 29.0912V32.9628H64.7735V27.4938H65.9334L66.5485 31.3779Z" fill="white"/>
<path d="M71.5639 32.9467H70.7383L70.5897 31.9479H69.5619L69.4092 32.9467H68.6414L69.4917 27.4777H70.7301L71.5639 32.9467ZM69.6733 31.2173H70.4989L70.0861 28.4436L69.6733 31.2173Z" fill="white"/>
<path d="M73.0747 27.4353C73.9003 27.4353 74.313 27.9306 74.313 28.8139V28.9873H73.5205V28.752C73.5205 28.3393 73.3719 28.2113 73.1077 28.2113C72.8435 28.2113 72.6949 28.3558 72.6949 28.752C72.6949 29.883 74.3213 30.0893 74.3213 31.6413C74.3213 32.5205 73.9085 33.0199 73.0829 33.0199C72.2574 33.0199 71.8446 32.5205 71.8446 31.6413V31.3028H72.6206V31.7156C72.6206 32.1283 72.7857 32.2439 73.0334 32.2439C73.2811 32.2439 73.4462 32.0953 73.4462 31.7156C73.4462 30.5846 71.795 30.3824 71.795 28.8263C71.795 27.943 72.2078 27.4477 73.0334 27.4477" fill="white"/>
<path d="M74.5401 27.4938H77.1077V28.2698H76.2449V32.9628H75.407V28.2698H74.5401V27.4938Z" fill="white"/>
<path d="M78.2966 29.797H79.44V30.5854H78.2966V32.1869H79.7331V32.9628H77.4752V27.4938H79.7331V28.2698H78.2966V29.797Z" fill="white"/>
<path d="M81.9816 32.9463C81.9139 32.7289 81.8887 32.5005 81.9073 32.2735V31.4067C81.9073 30.8949 81.7463 30.7174 81.3666 30.7174H81.0735V32.9463H80.2479V27.4938H81.4863C82.3531 27.4938 82.7246 27.9066 82.7246 28.7527V29.1655C82.7528 29.3842 82.7162 29.6063 82.6194 29.8044C82.5225 30.0025 82.3697 30.1679 82.1798 30.2799C82.5926 30.4574 82.737 30.8825 82.737 31.4398V32.29C82.7236 32.514 82.7545 32.7384 82.8278 32.9505L81.9816 32.9463ZM81.0735 28.2533V29.9415H81.3955C81.7051 29.9415 81.8949 29.7929 81.8949 29.3677V28.8435C81.8949 28.4308 81.7628 28.2863 81.4822 28.2863L81.0735 28.2533Z" fill="white"/>
<path d="M72.6659 37.6259V38.3565C72.6659 39.2398 72.2531 39.7351 71.4275 39.7351C70.6019 39.7351 70.1891 39.2398 70.1891 38.3565V35.5126C70.1891 34.6335 70.6019 34.134 71.4275 34.134C72.2531 34.134 72.6659 34.6335 72.6659 35.5126V36.041H71.8733V35.4549C71.8733 35.0421 71.7123 34.91 71.4605 34.91C71.2087 34.91 71.0477 35.0586 71.0477 35.4549V38.4019C71.0477 38.8147 71.2087 38.9303 71.4605 38.9303C71.7123 38.9303 71.8733 38.7817 71.8733 38.4019V37.6259H72.6659Z" fill="white"/>
<path d="M75.8611 39.6659H75.0356L74.887 38.667H73.8591L73.7146 39.6659H72.951L73.7931 34.1845H75.0314L75.8611 39.6659ZM73.9706 37.9323H74.7962L74.3834 35.1627L73.9706 37.9323Z" fill="white"/>
<path d="M78.0158 38.0795L78.5731 34.1914H79.733V39.6645H78.9404V35.731L78.3708 39.6645H77.5906L76.9756 35.7929V39.6645H76.2449V34.1914H77.4007L78.0158 38.0795Z" fill="white"/>
<path d="M82.8 35.5424V36.2482C82.8 37.1274 82.3872 37.5979 81.5617 37.5979H81.1489V39.6617H80.3233V34.1845H81.5617C82.412 34.1845 82.8 34.655 82.8 35.5342M81.1489 34.9646V36.8096H81.5617C81.8258 36.8096 81.9744 36.6775 81.9744 36.2978V35.4723C81.9744 35.0595 81.8258 34.9604 81.5617 34.9604L81.1489 34.9646Z" fill="white"/>
<path d="M91.9098 35.8045V21.8121H86.8206V18.692H95.6306V35.8045H91.9098Z" fill="#07E23E"/>
<path d="M99.5499 35.8045V32.6364H109.776C111.217 32.6364 112.353 32.3004 113.185 31.6284C114.017 30.9564 114.545 30.0044 114.769 28.7723H103.295C101.646 28.7723 100.358 28.3163 99.4299 27.4043C98.5016 26.4923 98.0375 25.2762 98.0375 23.7562C98.0375 22.2201 98.5016 20.9961 99.4299 20.0841C100.358 19.156 101.646 18.692 103.295 18.692H110.112C111.985 18.692 113.585 19.044 114.913 19.7481C116.242 20.4521 117.258 21.4441 117.962 22.7241C118.666 24.0042 119.018 25.5082 119.018 27.2363C119.018 28.9643 118.666 30.4684 117.962 31.7484C117.258 33.0285 116.242 34.0285 114.913 34.7485C113.585 35.4525 111.985 35.8045 110.112 35.8045H99.5499ZM104.039 25.6522H114.769C114.529 24.4202 113.985 23.4762 113.137 22.8202C112.305 22.1641 111.169 21.8361 109.728 21.8361H104.039C102.791 21.8361 102.166 22.4761 102.166 23.7562C102.166 25.0202 102.791 25.6522 104.039 25.6522Z" fill="#07E23E"/>
<path d="M120.682 21.941C120.156 21.941 119.769 21.8107 119.521 21.5501C119.273 21.2835 119.149 20.935 119.149 20.5048V18.3051H117.796V17.2598H119.149V15.8236H120.465V17.2598H122.407V18.3051H120.465V20.3412C120.465 20.7108 120.646 20.8957 121.009 20.8957H122.661V21.941H120.682Z" fill="#07E23E"/>
<path d="M123.337 21.941V15.4418H124.653V17.2598H127.412C127.945 17.2598 128.332 17.3931 128.574 17.6597C128.822 17.9203 128.946 18.2657 128.946 18.6959V21.941H127.63V18.8505C127.63 18.4869 127.449 18.3051 127.086 18.3051H124.653V21.941H123.337Z" fill="#07E23E"/>
<path fill-rule="evenodd" clip-rule="evenodd" d="M125.627 35.1121H118.998V33.3627H127.789C128.281 33.3627 128.68 33.7544 128.68 34.2374V42.7513H126.898V36.3381L120.398 42.6723L119.143 41.4307L125.627 35.1121Z" fill="#07E23E"/>
<path d="M98.6732 6.26989C99.3568 6.57436 99.9798 6.99998 100.512 7.52623C100.563 7.70153 99.8335 7.39475 98.8848 6.88345C95.2178 4.9388 91.3325 3.43815 87.3109 2.41321C85.3551 1.90921 79.9039 1.41252 83.414 2.09182C87.7925 2.82225 89.4345 3.71338 94.1195 5.57598C94.2726 5.63487 94.4173 5.71344 94.5501 5.80971C94.6085 5.86085 94.499 5.80971 94.3092 5.75858C91.0737 4.39704 87.7062 3.37387 84.2605 2.70538C84.7986 2.85381 85.3234 3.04683 85.8295 3.28242H85.917C86.3372 3.40212 86.7309 3.60039 87.0774 3.86677C87.0774 3.9179 86.0557 3.94711 82.8959 3.34816C81.4363 3.06329 81.3634 3.26051 82.6988 3.50155C84.7174 3.81481 86.6966 4.34374 88.6025 5.07928C89.0979 5.24018 89.585 5.42545 90.0621 5.63441C91.0983 6.02884 91.8427 6.4671 91.777 6.58397C91.1117 6.51273 90.4617 6.33775 89.8504 6.06537H89.7264C88.2669 5.56867 88.6609 5.84624 92.4046 7.52623C92.6455 7.60551 92.8668 7.73496 93.0541 7.90605C93.0541 7.95718 92.733 7.85492 92.3681 7.69423C89.1021 6.28504 85.6683 5.30304 82.1515 4.7725C81.6695 4.68268 81.1818 4.62654 80.692 4.6045C80.692 4.6045 80.8306 4.6045 82.8813 5.04276C84.3119 5.29318 85.7048 5.72519 87.0263 6.32832C87.1649 6.40867 87.2598 6.48171 87.289 6.49632C87.3182 6.51093 87.289 6.54015 87.0701 6.49632C86.2454 6.26989 84.2824 5.93389 83.8591 5.86084H83.8153C81.2513 5.52472 78.6611 5.43423 76.0799 5.59059C73.395 5.73151 70.7391 6.21507 68.1767 7.02954C65.4863 7.91794 62.8961 9.08568 60.4485 10.5137C57.2531 12.3879 54.3102 14.6634 51.6915 17.2848C48.9879 19.9693 46.5445 22.9042 44.3939 26.05C43.8831 26.7804 41.9127 29.7021 41.9127 29.7021C41.4676 30.4326 41.037 31.163 40.6137 31.8934C40.1905 32.6239 39.7818 33.3981 39.3805 34.2089L38.1545 36.7435L35.739 41.8565C35.739 41.8565 24.2161 25.3049 24.165 25.2465C24.165 25.4072 12.5327 52.7838 11.9124 54.1935C10.234 51.2718 8.73066 48.5254 7.65062 46.4071C6.96472 45.1437 6.36967 43.8329 5.87002 42.4847C5.84043 42.3967 5.81846 42.3062 5.80434 42.2144C5.73136 41.7908 5.94299 41.9076 6.41004 42.3751C6.62167 42.5504 6.826 42.7403 7.02303 42.9376L6.67275 42.1414C5.43946 39.3804 1.4258 30.2938 1.18498 29.1689C1.00431 28.5108 0.862978 27.8425 0.761719 27.1675H0.980646C1.47389 27.4102 1.93888 27.7066 2.36718 28.0514L2.6299 28.1901C2.49854 27.5401 2.9145 27.1675 3.19911 27.562L2.0315 25.0566C1.80822 24.6757 1.62715 24.2716 1.49148 23.8514C1.28842 23.1599 1.15158 22.4506 1.08281 21.7331C1.08281 21.682 1.08281 21.6236 1.17038 21.6382C1.2904 21.7092 1.39272 21.8066 1.46958 21.923C1.55606 22.021 1.63418 22.1261 1.70311 22.2371L2.04609 22.7119L2.38178 23.2743L2.3161 22.9237C2.3161 22.7557 2.13366 22.2298 2.06069 21.9888C1.98771 21.7477 2.17015 21.6528 2.44746 21.923C3.18931 22.7569 3.84686 23.6621 4.4105 24.6256L4.24266 24.2677C3.03856 21.7696 3.07505 20.9589 4.33023 22.4489C5.3154 23.6176 11.3359 33.3251 11.3359 33.3251L22.3552 7.38014C22.9098 8.17631 35.0603 27.2844 35.0603 27.2844C35.0603 27.2844 35.8776 25.9769 36.4395 25.1515L37.1182 24.1582C37.432 23.698 37.7531 23.2378 38.0961 22.7776C38.7626 21.8622 39.4534 20.9564 40.1686 20.0604C40.5773 19.5345 40.9932 19.0086 41.4092 18.4973C41.8251 17.986 42.2776 17.482 42.73 17.0364C44.9397 14.5382 47.3565 12.2316 49.9546 10.1412C52.6087 7.97591 55.4827 6.09569 58.5293 4.53146C61.1119 3.21215 63.8305 2.17857 66.6369 1.44904C69.461 0.712375 72.3598 0.30067 75.2772 0.221913C79.4009 0.121853 83.5169 0.628831 87.4933 1.7266C91.3825 2.8045 95.1341 4.32906 98.6732 6.26989Z" fill="#07E23E"/>
<path d="M151.984 0.0209351V53.963" stroke="white" stroke-width="0.922087"/>
<path d="M212.281 13.2551V14.5464H206.225V9.47389H208.544C209.583 9.47389 210.433 9.85078 211.19 10.5953C211.947 11.3413 212.281 12.2295 212.281 13.2551ZM207.385 17.6572C206.581 18.4032 206.225 19.3362 206.225 20.4545V30.5206V40.5142C206.225 41.6325 206.581 42.5654 207.385 43.3115C207.41 43.3347 207.435 43.3532 207.46 43.3764C207.787 43.6976 208.187 43.9587 208.625 44.1378C209.084 44.334 209.572 44.4313 210.102 44.4313H212.279V16.5358H210.102C209.063 16.5358 208.186 16.9112 207.385 17.6572ZM243.102 20.1873C243.073 19.2172 242.74 18.3723 242.018 17.6587C241.259 16.9142 240.408 16.5374 239.37 16.5374H238.333V13.1145C238.333 12.0904 237.998 11.2239 237.243 10.5258C236.492 9.82607 235.636 9.47389 234.596 9.47389H232.646V14.5448C232.646 14.5448 232.654 29.668 232.654 34.4733C232.654 37.5316 233.364 39.6755 233.935 40.7274C234.481 41.7375 235.677 43.1091 237.746 43.8552C238.707 44.2027 240.035 44.3572 241.031 44.4251C241.092 44.4267 241.148 44.4267 241.201 44.4267H243.106V41.77C243.106 41.1738 242.917 40.3041 242.431 39.762C241.744 38.9928 241.054 38.6205 240.41 38.6205C240.071 38.6082 239.601 38.5804 239.486 38.5217C238.729 38.2421 238.336 37.7154 238.336 36.8767V21.2453H243.106V20.317C243.108 20.3185 243.103 20.2058 243.102 20.1873ZM265.862 41.3545V44.4004C265.862 44.4004 265.397 44.3958 264.284 44.1502C263.176 43.9062 262.221 43.5617 261.564 43.0952C261.526 43.12 259.555 44.4282 256.701 44.4282C256.701 44.4282 254.945 44.4298 254.884 44.4282C254.657 44.4128 252.954 44.3556 251.333 43.7934C249.922 43.3038 248.505 42.0202 247.966 41.183C246.78 39.348 246.417 37.1995 246.417 35.4665C246.417 33.4878 246.671 30.8157 248.599 28.8849C250.98 26.5016 254.303 26.5402 254.486 26.5124V26.5016H259.074V23.3213C259.074 22.7621 258.989 22.2833 258.564 21.8647C258.14 21.4446 257.722 21.2468 257.065 21.2468H251.557C250.614 21.2468 249.627 20.8854 248.921 20.1873C248.215 19.4875 247.697 18.6612 247.697 17.7298V16.5389H257.632C259.419 16.7196 261.027 17.2741 262.44 18.3924C263.85 19.5107 264.761 20.8993 265.128 22.4825V37.581C265.494 38.1108 265.862 39.9952 265.862 41.3545ZM257.5 38.6329C258.412 38.6329 259.035 38.1618 259.072 37.3725V31.208H253.676C252.733 31.208 252.1 31.7069 252.1 32.5472V37.2953C252.1 38.134 252.733 38.6344 253.676 38.6344H257.5V38.6329ZM228.67 39.7651C227.984 38.9959 227.294 38.6236 226.649 38.6236C226.31 38.6113 225.841 38.5835 225.725 38.5248C224.968 38.2452 224.576 37.7185 224.576 36.8798V21.2453H229.346V20.317C229.346 20.317 229.343 20.2058 229.341 20.1873C229.313 19.2172 228.98 18.3723 228.257 17.6587C227.499 16.9142 226.648 16.5374 225.609 16.5374H224.572V9.47235H222.622C221.582 9.47235 220.728 9.82452 219.973 10.5242C219.266 11.1776 218.932 11.9777 218.89 12.9137H218.882C218.882 12.9137 218.89 29.668 218.89 34.4733C218.89 37.5331 219.6 39.6755 220.171 40.7274C220.719 41.7375 221.914 43.1091 223.983 43.8552C224.943 44.2027 226.271 44.3572 227.267 44.4251C227.328 44.4267 227.385 44.4267 227.438 44.4267H229.343V41.77C229.346 41.1768 229.155 40.3072 228.67 39.7651ZM199.884 12.0904V12.0889V9.49552H197.256C195.806 9.49552 194.629 10.6571 194.629 12.0889V35.434C194.629 37.581 192.864 39.3233 190.689 39.3233C188.512 39.3233 186.747 37.581 186.747 35.434C186.747 34.0006 185.57 32.8406 184.12 32.8406H181.491V35.4325V35.434C181.491 35.4356 181.491 35.4371 181.491 35.4371C181.492 40.4493 185.61 44.5116 190.687 44.5116C195.716 44.5116 199.798 40.5281 199.879 35.5854H199.882V12.0904H199.884Z" fill="#47C6F1"/>
</svg>
