<svg width="48" height="37" viewBox="0 0 48 37" fill="none" xmlns="http://www.w3.org/2000/svg">
<path d="M17.5168 12.1591V12.8962H14.0715V10.0009H15.3911C15.9819 10.0009 16.466 10.216 16.8966 10.641C17.3273 11.0668 17.5168 11.5737 17.5168 12.1591ZM14.7317 14.6718C14.2744 15.0976 14.0715 15.6302 14.0715 16.2685V22.0141V27.7183C14.0715 28.3566 14.2744 28.8891 14.7317 29.315C14.746 29.3282 14.7602 29.3388 14.7744 29.352C14.9604 29.5354 15.1882 29.6844 15.4373 29.7866C15.6981 29.8986 15.9757 29.9542 16.2773 29.9542H17.5159V14.0317H16.2773C15.6865 14.0317 15.1873 14.246 14.7317 14.6718ZM35.0515 16.1159C35.0354 15.5623 34.8459 15.08 34.4348 14.6727C34.0033 14.2477 33.5192 14.0326 32.9284 14.0326H32.3384V12.0789C32.3384 11.4944 32.148 10.9998 31.7182 10.6013C31.2911 10.2019 30.8044 10.0009 30.2127 10.0009H29.1031V12.8953C29.1031 12.8953 29.1075 21.5274 29.1075 24.2702C29.1075 26.0159 29.5115 27.2396 29.8363 27.84C30.1468 28.4166 30.8275 29.1995 32.0047 29.6253C32.5511 29.8237 33.3065 29.9118 33.8734 29.9506C33.9081 29.9515 33.9401 29.9515 33.9703 29.9515H35.0541V28.4351C35.0541 28.0948 34.9465 27.5984 34.6697 27.289C34.2791 26.8499 33.8867 26.6374 33.5201 26.6374C33.327 26.6304 33.0601 26.6145 32.9942 26.581C32.5636 26.4214 32.3402 26.1208 32.3402 25.6421V16.7199H35.0541V16.19C35.055 16.1909 35.0524 16.1265 35.0515 16.1159ZM48 28.1979V29.9365C48 29.9365 47.7357 29.9339 47.1022 29.7937C46.4722 29.6544 45.9285 29.4578 45.5548 29.1915C45.5334 29.2056 44.4123 29.9524 42.7884 29.9524C42.7884 29.9524 41.7891 29.9533 41.7544 29.9524C41.6254 29.9436 40.6564 29.911 39.7345 29.59C38.9319 29.3106 38.1258 28.5779 37.8188 28.1001C37.1443 27.0527 36.9379 25.8263 36.9379 24.8371C36.9379 23.7077 37.082 22.1825 38.1791 21.0805C39.5334 19.7201 41.4243 19.7421 41.5284 19.7263V19.7201H44.1382V17.9048C44.1382 17.5856 44.0902 17.3123 43.8481 17.0734C43.607 16.8336 43.3694 16.7207 42.9957 16.7207H39.8618C39.3252 16.7207 38.7638 16.5144 38.3624 16.1159C37.9603 15.7166 37.6657 15.2449 37.6657 14.7132V14.0335H43.3178C44.3349 14.1367 45.2496 14.4532 46.0531 15.0915C46.8557 15.7298 47.3736 16.5224 47.5827 17.4261V26.0441C47.7909 26.3465 48 27.4221 48 28.1979ZM43.2431 26.6445C43.7618 26.6445 44.116 26.3756 44.1373 25.9251V22.4064H41.0675C40.5309 22.4064 40.1705 22.6912 40.1705 23.1708V25.881C40.1705 26.3597 40.5309 26.6454 41.0675 26.6454H43.2431V26.6445ZM26.8412 27.2907C26.4505 26.8517 26.0581 26.6392 25.6915 26.6392C25.4984 26.6321 25.2315 26.6163 25.1657 26.5828C24.735 26.4232 24.5116 26.1225 24.5116 25.6438V16.7199H27.2256V16.19C27.2256 16.19 27.2238 16.1265 27.2229 16.1159C27.2069 15.5623 27.0174 15.08 26.6063 14.6727C26.1747 14.2477 25.6906 14.0326 25.0998 14.0326H24.5099V10H23.4003C22.8085 10 22.3227 10.201 21.8929 10.6004C21.4907 10.9733 21.3012 11.43 21.2772 11.9643H21.2727C21.2727 11.9643 21.2772 21.5274 21.2772 24.2702C21.2772 26.0168 21.6812 27.2396 22.0059 27.84C22.3174 28.4166 22.9972 29.1995 24.1744 29.6253C24.7207 29.8237 25.4762 29.9118 26.043 29.9506C26.0777 29.9515 26.1097 29.9515 26.14 29.9515H27.2238V28.4351C27.2256 28.0965 27.117 27.6002 26.8412 27.2907ZM10.4642 11.4944V11.4935V10.0132H8.9693C8.14445 10.0132 7.47442 10.6762 7.47442 11.4935V24.8186C7.47442 26.0441 6.47071 27.0386 5.23298 27.0386C3.99436 27.0386 2.99066 26.0441 2.99066 24.8186C2.99066 24.0004 2.32063 23.3383 1.49577 23.3383H0V24.8177V24.8186C0 24.8195 0 24.8204 0 24.8204C0.000889812 27.6813 2.34376 30 5.23209 30C8.09284 30 10.4152 27.7263 10.4615 24.905H10.4633V11.4944H10.4642Z" fill="white"/>
</svg>
