<svg width="58" height="26" viewBox="0 0 58 26" fill="none" xmlns="http://www.w3.org/2000/svg">
<g clip-path="url(#clip0_49_427)">
<mask id="mask0_49_427" style="mask-type:luminance" maskUnits="userSpaceOnUse" x="-11" y="-5" width="75" height="41">
<path d="M63.4196 -4.98468H-10.8398V35.8329H63.4196V-4.98468Z" fill="white"/>
</mask>
<g mask="url(#mask0_49_427)">
<path d="M52.9972 10.0012H58.0025L53.2369 4.84112L57.7624 -0.00238037H53.2714L50.9743 2.37191L48.7117 -0.00238037H43.8433L48.4375 4.99943L43.6377 10.0012H48.3347L50.7687 7.50053L52.9972 10.0012ZM36.8492 16.7441H33.1463V12.0274H37.1575C38.9403 12.0274 39.8658 12.8505 39.8658 14.2749C39.8658 15.8261 38.5287 16.7441 36.8487 16.7441H36.8492ZM30.8838 10.0012V25.8297H36.8492C40.552 25.8297 42.6777 23.9619 42.6777 21.208C42.6777 19.6567 41.8204 18.3587 40.4151 17.5357C41.5466 16.8075 42.1637 15.6044 42.1637 14.2749C42.1637 11.7742 40.1409 10.0012 37.1925 10.0012H30.8842H30.8838ZM36.8492 23.7721H33.1463V18.7703H37.0206C39.1463 18.7703 40.3806 19.7201 40.3806 21.208C40.3806 22.8856 39.3864 23.7721 36.8492 23.7721ZM6.40499 26.0196C9.73038 26.0196 12.1303 24.0883 12.1303 21.4608C12.1303 18.4851 9.45615 17.5038 6.95346 16.7441C4.4849 15.9844 3.28517 15.541 3.28517 13.9898C3.28517 12.6603 4.31388 11.8372 6.26809 11.8372C8.2223 11.8372 9.04501 12.6288 9.86772 14.0532L11.7533 12.9769C10.8619 11.2992 9.01046 9.81102 6.26766 9.81102C3.14784 9.81102 0.988059 11.6155 0.988059 13.9898C0.988059 16.902 3.62807 17.9468 6.02797 18.675C8.22229 19.3712 9.76493 19.9096 9.76493 21.4608C9.76493 23.012 8.49653 23.93 6.40499 23.93C4.31345 23.93 2.70215 22.7588 1.98222 21.0807L-0.00610352 22.1885C1.02261 24.3411 3.4225 26.0192 6.40499 26.0192V26.0196ZM21.8672 26.0196C24.7128 26.0196 27.2155 24.5951 28.6553 22.5056L26.9412 21.1127C25.8443 22.9486 23.9929 23.93 21.8672 23.93C18.3704 23.93 15.9018 21.4923 15.9018 17.9468C15.9018 14.4013 18.3704 11.8372 21.8672 11.8372C23.8901 11.8372 25.7756 12.8501 26.8043 14.5596L28.5871 13.2301C27.1127 11.0456 24.61 9.81102 21.8672 9.81102C17.0674 9.81102 13.5706 13.325 13.5706 17.9468C13.5706 22.5686 17.0674 26.0192 21.8672 26.0192V26.0196Z" fill="white"/>
</g>
</g>
<defs>
<clipPath id="clip0_49_427">
<rect width="58" height="26" fill="white"/>
</clipPath>
</defs>
</svg>
