<svg width="58" height="37" viewBox="0 0 58 37" fill="none" xmlns="http://www.w3.org/2000/svg">
<g clip-path="url(#clip0_49_422)">
<path d="M0.519531 19.4901V14.0438H11.5069V30.0513H5.96504V19.4901H0.519531Z" fill="white"/>
<path d="M14.8561 19.4901C16.3865 19.4901 17.6271 18.2709 17.6271 16.7669C17.6271 15.263 16.3865 14.0438 14.8561 14.0438C13.3258 14.0438 12.0852 15.263 12.0852 16.7669C12.0852 18.2709 13.3258 19.4901 14.8561 19.4901Z" fill="white"/>
<path d="M23.6511 30.0513L18.2056 14.0438H23.6029L26.3497 22.0949L29.0966 14.0438H34.4939L37.1926 22.0002L39.8912 14.0438H45.2885L39.9394 30.0513H34.4939L31.7952 22.0949L29.0484 30.0513H23.6511Z" fill="white"/>
<path d="M46.6859 14.0438L41.2886 30.0513H46.6859L49.4327 22.0475L52.1796 30.0513H57.4805L52.0832 14.0438H46.6859Z" fill="white"/>
</g>
<defs>
<clipPath id="clip0_49_422">
<rect width="56.961" height="16.0075" fill="white" transform="translate(0.519531 14.0438)"/>
</clipPath>
</defs>
</svg>
